PathFileType	4	(x/y/z)	S01_PSF_T17.trc
DataRate	CameraRate	NumFrames	NumMarkers	Units	OrigDataRate	OrigDataStartFrame	OrigNumFrames
240	240	5	51	mm	240	318	363
Frame#	Time	Sternum			R.Acromium			L.Acromium			Top.Head			R.ASIS			L.ASIS			R.PSIS			L.PSIS			R.Great.Tro			L.Great.Tro			R.Iliac.Crest			L.Iliac.Crest			V.Sacral			R.Thigh.Upper.Post			R.Thigh.Lower.Ant			R.Thigh.Lower.Post			R.Thigh.Upper.Ant			R.Knee.Lat			R.Knee.Med			R.Shank.Upper.Post			R.Shank.Lower.Ant			R.Shank.Lower.Post			R.Shank.Upper.Ant			R.Ankle.Lat			R.Ankle.Med			R.Heel.Upper			R.Heel.Med			R.Heel.Lat			R.Toe.Lat			R.Toe.Med			R.Toe.Tip			L.Thigh.Upper.Post			L.Thigh.Lower.Ant			L.Thigh.Lower.Post			L.Thigh.Upper.Ant			L.Knee.Lat			L.Knee.Med			L.Shank.Upper.Post			L.Shank.Lower.Ant			L.Shank.Lower.Post			L.Shank.Upper.Ant			L.Ankle.Lat			L.Ankle.Med			L.Heel.Upper			L.Heel.Med			L.Heel.Lat			L.Toe.Lat			L.Toe.Med			L.Toe.Tip			Cervical.Spine			Back			
		X1	Y1	Z1	X2	Y2	Z2	X3	Y3	Z3	X4	Y4	Z4	X5	Y5	Z5	X6	Y6	Z6	X7	Y7	Z7	X8	Y8	Z8	X9	Y9	Z9	X10	Y10	Z10	X11	Y11	Z11	X12	Y12	Z12	X13	Y13	Z13	X14	Y14	Z14	X15	Y15	Z15	X16	Y16	Z16	X17	Y17	Z17	X18	Y18	Z18	X19	Y19	Z19	X20	Y20	Z20	X21	Y21	Z21	X22	Y22	Z22	X23	Y23	Z23	X24	Y24	Z24	X25	Y25	Z25	X26	Y26	Z26	X27	Y27	Z27	X28	Y28	Z28	X29	Y29	Z29	X30	Y30	Z30	X31	Y31	Z31	X32	Y32	Z32	X33	Y33	Z33	X34	Y34	Z34	X35	Y35	Z35	X36	Y36	Z36	X37	Y37	Z37	X38	Y38	Z38	X39	Y39	Z39	X40	Y40	Z40	X41	Y41	Z41	X42	Y42	Z42	X43	Y43	Z43	X44	Y44	Z44	X45	Y45	Z45	X46	Y46	Z46	X47	Y47	Z47	X48	Y48	Z48	X49	Y49	Z49	X50	Y50	Z50	X51	Y51	Z51	

318	1.3208	474.16	1264.3	263.87	359.22	1520.7	432.69	356.41	1532.7	102.26	388.71	1842.3	261.82	418.11	1025.2	417.09	432.19	1022.2	149.35	185.25	1053.2	317.25	184.17	1059.7	213.98	342.99	968.89	496.93	320.92	975.75	68.518	322.57	1118	476.51	321.91	1099.1	71.202	170.74	1020.8	260.15	442.84	672.41	479.58	535.76	634.93	455.51	479.98	593.45	458.04	500.71	716.67	475.22	526.67	550.82	456.32	537.33	550.52	307.26	521.23	384.63	473.32	609.24	326.11	440.51	540.59	316.9	462.55	585.28	394.24	456.3	618.44	121.17	433.02	654.75	142.79	345.43	568.31	70.867	366.09	595.67	51.122	338.15	586.08	44.001	401.22	763.22	89.115	477.12	799.94	115.15	361.46	847.07	153.34	422.11	226.4	714.18	97.368	293.86	626.89	98.923	216.69	625.02	114.28	295.57	720.41	77.788	239.23	529.95	104.15	265.5	528.09	247.63	154.95	398.45	92.352	199.48	299.71	117.69	141.79	321.74	98.528	213.59	374.92	106.98	95.06	109.4	143.88	121.26	118.93	239.7	21.383	79.444	189.81	31.342	54.245	223.51	30.177	53.516	160.92	240.45	38.305	126.98	264.86	46.746	248.82	329.06	53.304	198.38	274.09	1586.4	267.78	175.09	1279.7	278.86
319	1.325	479.52	1262.9	264.27	364.79	1519.2	433.36	361.67	1531.4	102.95	394.3	1841	262.58	423.63	1023.9	417.35	437.65	1021.1	149.48	190.68	1051.7	317.48	189.58	1058.5	214.23	348.54	967.28	497.03	326.18	974.87	68.535	327.89	1116.3	476.91	327.28	1098	71.429	176.17	1019.5	260.32	448.06	670.92	479.31	540.88	633.44	454.68	485.12	591.95	457.66	505.9	715.18	474.59	532	549.57	455.79	541.6	549.01	306.45	528.34	383.24	472.98	616.99	325.71	440.12	548.48	315.71	462.25	592.27	393.6	455.87	628.89	120.7	432.73	664.73	142.71	345.07	579.22	69.676	365.95	606.77	50.218	337.98	597.4	43.077	401.1	774.23	90.428	476.58	810.4	116.86	360.84	857.19	155.72	421.34	230.86	713.64	97.645	298.03	626.13	99.099	220.9	624.51	114.57	300.04	719.66	77.997	242.98	529.36	104.3	269.51	527.32	247.8	157.73	398.43	92.512	201.49	299.32	117.82	143.98	321.83	98.643	216.19	374.43	107.13	95.395	109.77	144.04	121.69	119.21	239.81	21.632	80.028	189.93	31.513	54.782	223.63	30.319	54.07	161.04	240.49	38.272	127.03	265	46.57	248.86	329.2	52.962	198.41	279.45	1585.1	268.57	180.4	1278.4	279.47
320	1.3292	484.9	1261.5	264.68	370.36	1517.7	434.07	366.94	1530.1	103.67	399.88	1839.7	263.36	429.18	1022.5	417.6	443.12	1020	149.6	196.13	1050.3	317.73	195.02	1057.3	214.51	354.14	965.68	497.15	331.46	973.98	68.57	333.24	1114.7	477.31	332.65	1096.9	71.667	181.64	1018.3	260.53	453.45	669.51	479.06	546.16	632.05	453.88	490.44	590.55	457.32	511.25	713.8	473.98	537.43	548.34	455.29	546.04	547.59	305.73	535.29	381.88	472.61	624.49	325.22	439.67	556.09	314.54	461.89	599.1	392.89	455.43	638.74	120.2	432.32	674.14	142.55	344.6	589.45	68.578	365.67	617.15	49.366	337.67	607.99	42.216	400.83	784.54	91.477	475.9	820.21	118.27	360.09	866.7	157.69	420.46	235.43	713.05	97.94	302.34	625.35	99.294	225.23	623.96	114.87	304.62	718.88	78.227	246.89	528.72	104.47	273.67	526.52	247.97	160.65	398.4	92.683	203.6	298.93	117.96	146.28	321.92	98.765	218.91	373.91	107.31	95.761	110.18	144.18	122.14	119.53	239.91	21.9	80.679	190.03	31.694	55.391	223.75	30.471	54.681	161.14	240.54	38.244	127.09	265.15	46.394	248.91	329.34	52.616	198.44	284.82	1583.8	269.39	185.71	1277	280.09
321	1.3333	490.3	1260.1	265.11	375.92	1516.2	434.81	372.21	1528.9	104.41	405.46	1838.4	264.17	434.76	1021.2	417.84	448.59	1018.9	149.73	201.61	1048.9	318.01	200.49	1056.1	214.81	359.77	964.13	497.27	336.77	973.07	68.626	338.63	1113	477.74	338.02	1095.8	71.916	187.14	1017	260.76	459	668.21	478.83	551.61	630.78	453.1	495.94	589.25	457.01	516.75	712.52	473.39	542.97	547.12	454.81	550.66	546.25	305.09	542.07	380.55	472.2	631.72	324.65	439.18	563.44	313.39	461.47	605.78	392.12	454.96	647.96	119.66	431.8	682.97	142.3	344.02	598.99	67.559	365.26	626.8	48.545	337.23	617.85	41.406	400.43	794.15	92.239	475.1	829.35	119.34	359.22	875.6	159.23	419.46	240.09	712.42	98.252	306.76	624.54	99.51	229.68	623.36	115.19	309.29	718.07	78.478	250.96	528.06	104.68	277.98	525.69	248.17	163.7	398.38	92.866	205.8	298.54	118.12	148.69	322.02	98.893	221.75	373.37	107.52	96.159	110.62	144.32	122.62	119.89	240.01	22.186	81.405	190.13	31.884	56.078	223.86	30.634	55.356	161.25	240.58	38.219	127.15	265.3	46.22	248.95	329.48	52.268	198.47	290.18	1582.5	270.25	191.04	1275.7	280.73
322	1.3375	495.73	1258.8	265.56	381.49	1514.7	435.58	377.48	1527.7	105.17	411.04	1837.2	265.02	440.36	1019.9	418.08	454.07	1017.9	149.86	207.12	1047.5	318.31	205.98	1054.8	215.13	365.45	962.61	497.41	342.1	972.14	68.706	344.06	1111.4	478.17	343.4	1094.7	72.177	192.68	1015.7	261.03	464.72	667	478.61	557.23	629.62	452.34	501.63	588.05	456.72	522.41	711.35	472.82	548.62	545.93	454.37	555.47	545.02	304.52	548.69	379.26	471.76	638.71	323.98	438.64	570.51	312.25	460.99	612.31	391.28	454.47	656.56	119.07	431.17	691.21	141.94	343.33	607.83	66.606	364.72	635.7	47.74	336.67	626.94	40.636	399.92	803.07	92.698	474.19	837.83	120.06	358.22	883.91	160.32	418.35	244.86	711.75	98.58	311.31	623.72	99.745	234.26	622.72	115.53	314.06	717.25	78.751	255.18	527.35	104.9	282.44	524.83	248.37	166.87	398.35	93.059	208.09	298.14	118.29	151.2	322.14	99.025	224.7	372.83	107.74	96.592	111.12	144.44	123.13	120.31	240.09	22.493	82.212	190.2	32.086	56.851	223.96	30.81	56.102	161.34	240.63	38.199	127.22	265.45	46.049	249	329.63	51.917	198.5	295.55	1581.3	271.14	196.39	1274.4	281.38
